<svg width="650" height="154" viewBox="0 0 650 154" fill="none" xmlns="http://www.w3.org/2000/svg">
<path d="M173.128 119.745C167.995 119.745 163.561 118.745 159.828 116.745C156.161 114.679 153.295 111.779 151.228 108.045C149.228 104.312 148.228 99.8452 148.228 94.6452C148.228 89.5785 149.228 85.1785 151.228 81.4452C153.228 77.6452 155.961 74.6785 159.428 72.5452C162.961 70.4119 167.028 69.3452 171.628 69.3452C174.895 69.3452 177.828 69.9119 180.428 71.0452C183.028 72.1119 185.228 73.6785 187.028 75.7452C188.895 77.8119 190.295 80.3119 191.228 83.2452C192.228 86.1785 192.728 89.4785 192.728 93.1452C192.728 94.2119 192.428 95.0119 191.828 95.5452C191.228 96.0119 190.361 96.2452 189.228 96.2452H154.428V90.9452H187.328L185.728 92.2452C185.728 88.6452 185.195 85.6119 184.128 83.1452C183.061 80.6119 181.495 78.6785 179.428 77.3452C177.428 76.0119 174.895 75.3452 171.828 75.3452C168.428 75.3452 165.528 76.1452 163.128 77.7452C160.795 79.2785 159.028 81.4452 157.828 84.2452C156.628 86.9785 156.028 90.1785 156.028 93.8452V94.4452C156.028 100.579 157.495 105.245 160.428 108.445C163.428 111.645 167.661 113.245 173.128 113.245C175.395 113.245 177.628 112.945 179.828 112.345C182.095 111.745 184.295 110.745 186.428 109.345C187.361 108.745 188.195 108.479 188.928 108.545C189.728 108.545 190.361 108.779 190.828 109.245C191.295 109.645 191.595 110.179 191.728 110.845C191.928 111.445 191.861 112.112 191.528 112.845C191.261 113.579 190.695 114.212 189.828 114.745C187.628 116.345 185.028 117.579 182.028 118.445C179.028 119.312 176.061 119.745 173.128 119.745ZM213.551 119.545C212.217 119.545 211.184 119.179 210.451 118.445C209.784 117.712 209.451 116.679 209.451 115.345V73.6452C209.451 72.3119 209.784 71.3119 210.451 70.6452C211.117 69.9119 212.084 69.5452 213.351 69.5452C214.617 69.5452 215.584 69.9119 216.251 70.6452C216.984 71.3119 217.351 72.3119 217.351 73.6452V81.7452H216.351C217.417 77.8119 219.451 74.7785 222.451 72.6452C225.451 70.5119 229.151 69.3785 233.551 69.2452C234.551 69.1785 235.351 69.4119 235.951 69.9452C236.551 70.4119 236.884 71.2452 236.951 72.4452C237.017 73.5785 236.751 74.4785 236.151 75.1452C235.551 75.8119 234.617 76.2119 233.351 76.3452L231.751 76.5452C227.217 76.9452 223.717 78.4119 221.251 80.9452C218.851 83.4119 217.651 86.8119 217.651 91.1452V115.345C217.651 116.679 217.284 117.712 216.551 118.445C215.884 119.179 214.884 119.545 213.551 119.545ZM254.49 119.545C253.157 119.545 252.157 119.179 251.49 118.445C250.824 117.712 250.49 116.679 250.49 115.345V73.6452C250.49 72.3119 250.824 71.3119 251.49 70.6452C252.157 69.9119 253.124 69.5452 254.39 69.5452C255.657 69.5452 256.624 69.9119 257.29 70.6452C258.024 71.3119 258.39 72.3119 258.39 73.6452V82.4452L257.29 81.0452C258.557 77.3119 260.59 74.4452 263.39 72.4452C266.257 70.3785 269.657 69.3452 273.59 69.3452C277.724 69.3452 281.057 70.3452 283.59 72.3452C286.19 74.2785 287.924 77.3119 288.79 81.4452H287.29C288.49 77.7119 290.624 74.7785 293.69 72.6452C296.824 70.4452 300.457 69.3452 304.59 69.3452C308.257 69.3452 311.257 70.0452 313.59 71.4452C315.99 72.8452 317.79 74.9785 318.99 77.8452C320.19 80.6452 320.79 84.2119 320.79 88.5452V115.345C320.79 116.679 320.424 117.712 319.69 118.445C319.024 119.179 318.024 119.545 316.69 119.545C315.424 119.545 314.424 119.179 313.69 118.445C313.024 117.712 312.69 116.679 312.69 115.345V88.9452C312.69 84.4785 311.924 81.2119 310.39 79.1452C308.857 77.0119 306.257 75.9452 302.59 75.9452C298.59 75.9452 295.424 77.3452 293.09 80.1452C290.824 82.8785 289.69 86.6119 289.69 91.3452V115.345C289.69 116.679 289.324 117.712 288.59 118.445C287.924 119.179 286.924 119.545 285.59 119.545C284.324 119.545 283.324 119.179 282.59 118.445C281.924 117.712 281.59 116.679 281.59 115.345V88.9452C281.59 84.4785 280.79 81.2119 279.19 79.1452C277.657 77.0119 275.09 75.9452 271.49 75.9452C267.49 75.9452 264.324 77.3452 261.99 80.1452C259.724 82.8785 258.59 86.6119 258.59 91.3452V115.345C258.59 118.145 257.224 119.545 254.49 119.545ZM356.235 119.745C352.902 119.745 349.902 119.112 347.235 117.845C344.635 116.512 342.568 114.712 341.035 112.445C339.502 110.179 338.735 107.645 338.735 104.845C338.735 101.245 339.635 98.4119 341.435 96.3452C343.302 94.2785 346.335 92.8119 350.535 91.9452C354.802 91.0785 360.602 90.6452 367.935 90.6452H372.435V95.9452H368.035C362.635 95.9452 358.368 96.2119 355.235 96.7452C352.168 97.2119 350.002 98.0452 348.735 99.2452C347.535 100.445 346.935 102.145 346.935 104.345C346.935 107.079 347.868 109.312 349.735 111.045C351.668 112.779 354.268 113.645 357.535 113.645C360.202 113.645 362.535 113.012 364.535 111.745C366.602 110.479 368.202 108.745 369.335 106.545C370.535 104.345 371.135 101.812 371.135 98.9452V87.5452C371.135 83.4119 370.302 80.4452 368.635 78.6452C366.968 76.7785 364.235 75.8452 360.435 75.8452C358.102 75.8452 355.768 76.1452 353.435 76.7452C351.102 77.3452 348.635 78.3119 346.035 79.6452C345.102 80.1119 344.302 80.2785 343.635 80.1452C342.968 79.9452 342.435 79.5785 342.035 79.0452C341.635 78.5119 341.402 77.9119 341.335 77.2452C341.268 76.5119 341.402 75.8119 341.735 75.1452C342.135 74.4785 342.735 73.9452 343.535 73.5452C346.468 72.0785 349.368 71.0119 352.235 70.3452C355.102 69.6785 357.835 69.3452 360.435 69.3452C364.635 69.3452 368.102 70.0452 370.835 71.4452C373.568 72.7785 375.602 74.8452 376.935 77.6452C378.268 80.3785 378.935 83.9119 378.935 88.2452V115.345C378.935 116.679 378.602 117.712 377.935 118.445C377.335 119.179 376.435 119.545 375.235 119.545C373.968 119.545 373.002 119.179 372.335 118.445C371.668 117.712 371.335 116.679 371.335 115.345V107.545H372.235C371.702 110.079 370.668 112.245 369.135 114.045C367.668 115.845 365.835 117.245 363.635 118.245C361.435 119.245 358.968 119.745 356.235 119.745ZM402.862 119.245C401.196 119.245 399.862 118.745 398.862 117.745C397.862 116.679 397.362 115.345 397.362 113.745C397.362 112.145 397.862 110.845 398.862 109.845C399.862 108.779 401.196 108.245 402.862 108.245C404.529 108.245 405.829 108.779 406.762 109.845C407.762 110.845 408.262 112.145 408.262 113.745C408.262 115.345 407.762 116.679 406.762 117.745C405.829 118.745 404.529 119.245 402.862 119.245ZM451.593 119.745C448.459 119.745 445.393 119.479 442.393 118.945C439.393 118.412 436.593 117.645 433.993 116.645C431.459 115.645 429.159 114.379 427.093 112.845C426.293 112.245 425.726 111.579 425.393 110.845C425.126 110.045 425.059 109.279 425.193 108.545C425.393 107.745 425.726 107.079 426.193 106.545C426.726 106.012 427.359 105.712 428.093 105.645C428.826 105.579 429.626 105.812 430.493 106.345C433.493 108.479 436.693 110.045 440.093 111.045C443.493 111.979 447.326 112.445 451.593 112.445C457.593 112.445 462.026 111.345 464.893 109.145C467.826 106.879 469.293 103.912 469.293 100.245C469.293 97.2452 468.226 94.9119 466.093 93.2452C464.026 91.5119 460.526 90.1452 455.593 89.1452L445.193 87.0452C438.926 85.7119 434.226 83.5452 431.093 80.5452C428.026 77.4785 426.493 73.4119 426.493 68.3452C426.493 65.2119 427.126 62.3785 428.393 59.8452C429.659 57.2452 431.426 55.0452 433.693 53.2452C435.959 51.3785 438.659 49.9452 441.793 48.9452C444.926 47.9452 448.393 47.4452 452.193 47.4452C456.393 47.4452 460.293 48.0452 463.893 49.2452C467.559 50.3785 470.859 52.1119 473.793 54.4452C474.526 55.0452 475.026 55.7452 475.293 56.5452C475.559 57.2785 475.593 58.0119 475.393 58.7452C475.193 59.4119 474.826 59.9785 474.293 60.4452C473.826 60.9119 473.193 61.1785 472.393 61.2452C471.659 61.3119 470.826 61.0452 469.893 60.4452C467.226 58.4452 464.459 57.0119 461.593 56.1452C458.726 55.2119 455.559 54.7452 452.093 54.7452C448.559 54.7452 445.493 55.2785 442.893 56.3452C440.359 57.4119 438.359 58.9785 436.893 61.0452C435.493 63.0452 434.793 65.3785 434.793 68.0452C434.793 71.2452 435.759 73.7785 437.693 75.6452C439.693 77.5119 442.926 78.8785 447.393 79.7452L457.793 81.9452C464.526 83.3452 469.493 85.4785 472.693 88.3452C475.959 91.1452 477.593 94.9785 477.593 99.8452C477.593 102.779 476.993 105.479 475.793 107.945C474.593 110.412 472.859 112.545 470.593 114.345C468.326 116.079 465.593 117.412 462.393 118.345C459.193 119.279 455.593 119.745 451.593 119.745ZM513.521 119.745C509.721 119.745 506.521 119.079 503.921 117.745C501.388 116.345 499.488 114.345 498.221 111.745C496.954 109.079 496.321 105.845 496.321 102.045V76.5452H489.621C488.488 76.5452 487.621 76.2785 487.021 75.7452C486.421 75.1452 486.121 74.3452 486.121 73.3452C486.121 72.3452 486.421 71.5785 487.021 71.0452C487.621 70.5119 488.488 70.2452 489.621 70.2452H496.321V58.7452C496.321 57.4119 496.688 56.4119 497.421 55.7452C498.154 55.0119 499.154 54.6452 500.421 54.6452C501.688 54.6452 502.654 55.0119 503.321 55.7452C504.054 56.4119 504.421 57.4119 504.421 58.7452V70.2452H517.021C518.154 70.2452 519.021 70.5119 519.621 71.0452C520.221 71.5785 520.521 72.3452 520.521 73.3452C520.521 74.3452 520.221 75.1452 519.621 75.7452C519.021 76.2785 518.154 76.5452 517.021 76.5452H504.421V101.245C504.421 105.045 505.221 107.945 506.821 109.945C508.421 111.879 511.021 112.845 514.621 112.845C515.888 112.845 516.954 112.712 517.821 112.445C518.754 112.179 519.521 112.045 520.121 112.045C520.721 111.979 521.221 112.179 521.621 112.645C522.021 113.112 522.221 113.912 522.221 115.045C522.221 115.845 522.054 116.579 521.721 117.245C521.454 117.912 520.954 118.379 520.221 118.645C519.421 118.912 518.354 119.145 517.021 119.345C515.754 119.612 514.588 119.745 513.521 119.745ZM551.994 119.745C547.66 119.745 543.86 118.712 540.594 116.645C537.394 114.579 534.894 111.679 533.094 107.945C531.36 104.145 530.494 99.6785 530.494 94.5452C530.494 89.3452 531.36 84.8785 533.094 81.1452C534.894 77.3452 537.394 74.4452 540.594 72.4452C543.86 70.3785 547.66 69.3452 551.994 69.3452C556.394 69.3452 560.16 70.4452 563.294 72.6452C566.427 74.8452 568.527 77.8119 569.594 81.5452H568.494V51.7452C568.494 50.4119 568.827 49.4119 569.494 48.7452C570.227 48.0119 571.26 47.6452 572.594 47.6452C573.86 47.6452 574.827 48.0119 575.494 48.7452C576.227 49.4119 576.594 50.4119 576.594 51.7452V115.345C576.594 116.679 576.26 117.712 575.594 118.445C574.927 119.179 573.927 119.545 572.594 119.545C571.327 119.545 570.327 119.179 569.594 118.445C568.927 117.712 568.594 116.679 568.594 115.345V105.845L569.694 107.245C568.627 111.045 566.494 114.079 563.294 116.345C560.16 118.612 556.394 119.745 551.994 119.745ZM553.694 113.245C556.694 113.245 559.327 112.512 561.594 111.045C563.86 109.579 565.594 107.445 566.794 104.645C568.06 101.845 568.694 98.4785 568.694 94.5452C568.694 88.4785 567.327 83.8452 564.594 80.6452C561.927 77.4452 558.294 75.8452 553.694 75.8452C550.627 75.8452 547.96 76.5785 545.694 78.0452C543.494 79.4452 541.76 81.5452 540.494 84.3452C539.294 87.0785 538.694 90.4785 538.694 94.5452C538.694 100.545 540.06 105.179 542.794 108.445C545.527 111.645 549.16 113.245 553.694 113.245ZM597.994 113.945C597.194 114.279 596.461 114.379 595.794 114.245C595.128 114.045 594.594 113.712 594.194 113.245C593.861 112.712 593.661 112.112 593.594 111.445C593.528 110.779 593.661 110.179 593.994 109.645C594.328 109.045 594.861 108.545 595.594 108.145L640.394 88.1452V92.1452L595.594 72.1452C594.861 71.7452 594.328 71.2785 593.994 70.7452C593.661 70.1452 593.528 69.5119 593.594 68.8452C593.661 68.1785 593.861 67.6119 594.194 67.1452C594.594 66.6119 595.128 66.2452 595.794 66.0452C596.461 65.8452 597.194 65.9452 597.994 66.3452L640.594 85.6452C642.728 86.5785 643.794 88.0785 643.794 90.1452C643.794 91.1452 643.528 92.0452 642.994 92.8452C642.461 93.5785 641.661 94.1785 640.594 94.6452L597.994 113.945Z" fill="black"/>
<path d="M89.4851 34.8855C90.0674 37.0586 89.0084 39.0897 87.3132 39.5439C85.6181 39.9981 83.6854 38.7686 83.1031 36.5956C82.5209 34.4225 83.5799 32.3915 85.275 31.9373C86.9702 31.483 88.9029 32.7125 89.4851 34.8855Z" stroke="black"/>
<path d="M111.529 28.9788C112.111 31.1518 111.052 33.1829 109.357 33.6371C107.662 34.0914 105.729 32.8619 105.147 30.6888C104.565 28.5158 105.624 26.4847 107.319 26.0305C109.014 25.5763 110.947 26.8058 111.529 28.9788Z" stroke="black"/>
<path d="M84.0088 37.0091C83.9226 36.6875 83.9007 36.352 83.9441 36.0218C83.9876 35.6917 84.0956 35.3734 84.2621 35.085C84.4286 34.7966 84.6503 34.5438 84.9145 34.3411C85.1787 34.1384 85.4802 33.9897 85.8018 33.9035C86.1235 33.8173 86.459 33.7954 86.7891 33.8388C87.1192 33.8823 87.4376 33.9903 87.726 34.1568C88.0144 34.3233 88.2671 34.545 88.4698 34.8092C88.6725 35.0734 88.8212 35.3749 88.9074 35.6965L88.2792 35.8649C88.2152 35.6257 88.1046 35.4015 87.9539 35.2051C87.8032 35.0087 87.6152 34.8439 87.4008 34.7201C87.1864 34.5963 86.9497 34.5159 86.7042 34.4836C86.4587 34.4513 86.2093 34.4676 85.9702 34.5317C85.731 34.5958 85.5068 34.7064 85.3104 34.8571C85.114 35.0078 84.9492 35.1957 84.8254 35.4101C84.7016 35.6246 84.6212 35.8613 84.5889 36.1067C84.5566 36.3522 84.5729 36.6016 84.637 36.8408L84.0088 37.0091Z" fill="black"/>
<path d="M63.7007 38.5003C62.7697 38.1227 61.9222 37.5654 61.2066 36.8602C60.491 36.1551 59.9213 35.3159 59.53 34.3906C59.1387 33.4652 58.9335 32.4719 58.9261 31.4673C58.9187 30.4626 59.1092 29.4664 59.4869 28.5354C59.8645 27.6044 60.4218 26.7569 61.1269 26.0413C61.8321 25.3257 62.6713 24.756 63.5966 24.3647C64.5219 23.9734 65.5152 23.7682 66.5199 23.7608C67.5245 23.7534 68.5207 23.944 69.4517 24.3216L68.7142 26.1398C68.022 25.8591 67.2813 25.7174 66.5343 25.7229C65.7873 25.7284 65.0488 25.881 64.3608 26.1719C63.6728 26.4628 63.0488 26.8864 62.5245 27.4185C62.0002 27.9506 61.5859 28.5807 61.3051 29.2729C61.0243 29.9651 60.8826 30.7059 60.8882 31.4528C60.8937 32.1998 61.0462 32.9384 61.3372 33.6264C61.6281 34.3144 62.0517 34.9383 62.5838 35.4626C63.1158 35.9869 63.746 36.4013 64.4382 36.682L63.7007 38.5003Z" fill="black"/>
<path d="M130.571 20.5823C131.188 19.7898 131.643 18.8834 131.911 17.9149C132.178 16.9464 132.252 15.9348 132.128 14.9378C132.004 13.9408 131.685 12.978 131.189 12.1042C130.693 11.2305 130.03 10.463 129.238 9.84557C128.445 9.22812 127.539 8.77282 126.57 8.50565C125.602 8.23849 124.59 8.1647 123.593 8.2885C122.596 8.41229 121.633 8.73125 120.759 9.22716C119.886 9.72307 119.118 10.3862 118.501 11.1787L120.049 12.3846C120.508 11.7954 121.078 11.3023 121.728 10.9336C122.378 10.5649 123.094 10.3277 123.835 10.2357C124.576 10.1436 125.328 10.1985 126.048 10.3971C126.768 10.5958 127.442 10.9343 128.032 11.3934C128.621 11.8525 129.114 12.4231 129.483 13.0728C129.851 13.7224 130.089 14.4383 130.181 15.1796C130.273 15.9209 130.218 16.6731 130.019 17.3932C129.82 18.1132 129.482 18.7872 129.023 19.3764L130.571 20.5823Z" fill="black"/>
<path d="M89.3096 35.0093C89.9447 33.8165 90.9157 32.7185 92.1426 31.806C93.3694 30.8935 94.8168 30.1926 96.3656 29.761C97.9143 29.3295 99.52 29.1797 101.05 29.324C102.58 29.4683 103.991 29.9025 105.166 30.5909L104.64 31.1C103.557 30.4656 102.257 30.0655 100.847 29.9325C99.4371 29.7996 97.9575 29.9376 96.5304 30.3353C95.1033 30.733 93.7695 31.3788 92.639 32.2197C91.5085 33.0605 90.6138 34.0722 90.0285 35.1714L89.3096 35.0093Z" fill="black"/>
<path d="M106.206 31.1826C106.116 30.845 106.09 30.4938 106.129 30.149C106.168 29.8042 106.273 29.4726 106.436 29.173C106.599 28.8735 106.819 28.6119 107.081 28.4031C107.343 28.1944 107.644 28.0426 107.965 27.9565C108.286 27.8704 108.622 27.8516 108.954 27.9012C109.286 27.9508 109.606 28.0679 109.897 28.2456C110.188 28.4234 110.445 28.6584 110.651 28.9373C110.858 29.2162 111.011 29.5335 111.101 29.871L110.473 30.0392C110.406 29.7882 110.292 29.5523 110.139 29.345C109.985 29.1376 109.795 28.9629 109.578 28.8307C109.362 28.6985 109.123 28.6115 108.877 28.5746C108.63 28.5377 108.381 28.5517 108.142 28.6157C107.903 28.6798 107.679 28.7926 107.484 28.9478C107.289 29.103 107.126 29.2975 107.005 29.5202C106.883 29.743 106.806 29.9896 106.777 30.2459C106.747 30.5023 106.767 30.7634 106.834 31.0144L106.206 31.1826Z" fill="black"/>
<path d="M95.1819 36.6628C94.8998 35.2492 95.7635 33.8593 97.1559 33.4862C98.4897 33.1288 99.8806 33.8218 100.399 35.1018L103.295 42.2579C104.075 44.1855 102.991 46.361 100.982 46.8993C99.0508 47.4168 97.0839 46.1945 96.6926 44.2335L95.1819 36.6628Z" fill="black"/>
<mask id="path-10-outside-1_164_11" maskUnits="userSpaceOnUse" x="49.7842" y="0" width="90" height="69" fill="black">
<rect fill="white" x="49.7842" width="90" height="69"/>
<path fill-rule="evenodd" clip-rule="evenodd" d="M72.0866 19.0394C74.545 20.5267 76.4878 22.7327 77.6526 25.3594L75.2218 26.4373C74.2777 24.3082 72.7029 22.5201 70.7102 21.3145C68.7174 20.109 66.4027 19.544 64.0786 19.6959C61.7545 19.8479 59.5331 20.7094 57.7142 22.1642C55.8954 23.6189 54.5668 25.5968 53.908 27.8307C53.2491 30.0646 53.2917 32.4469 54.03 34.6558C54.7682 36.8648 56.1666 38.7939 58.0363 40.1828C59.9059 41.5716 62.1567 42.3532 64.4848 42.422C66.8128 42.4908 69.1059 41.8435 71.0543 40.5675L71.0854 40.6151L74.2878 41.9707C73.9083 45.634 74.5093 49.2734 76.0409 52.5863C77.5725 55.8993 79.9905 58.7902 83.0937 61.0186C85.3337 62.6271 87.884 63.8569 90.629 64.6612C90.0972 65.495 89.603 66.355 89.1487 67.239C86.1978 66.3359 83.454 64.9916 81.0331 63.2533C77.5506 60.7524 74.8371 57.5083 73.1183 53.7904C71.807 50.9539 71.032 47.1553 70.9273 43.6881C68.905 44.6653 66.669 45.1467 64.4062 45.0799C61.5341 44.995 58.7572 44.0307 56.4506 42.3173C54.144 40.6039 52.4188 38.2239 51.508 35.4987C50.5972 32.7735 50.5447 29.8345 51.3575 27.0785C52.1704 24.3225 53.8095 21.8824 56.0534 20.0876C58.2973 18.2929 61.0379 17.23 63.9051 17.0426C66.7724 16.8551 69.6281 17.5521 72.0866 19.0394ZM126.696 51.1482C126.726 51.0814 126.756 51.0145 126.786 50.9475C128.506 47.0475 129.181 42.8918 128.756 38.8259C128.433 35.7369 127.227 32.0781 125.58 29.0378C127.831 28.8771 130.02 28.1751 131.955 26.9802C134.4 25.4706 136.323 23.2471 137.464 20.61C138.605 17.9728 138.909 15.049 138.335 12.2336C137.761 9.41808 136.337 6.84652 134.255 4.86618C132.173 2.88585 129.534 1.59215 126.693 1.15981C123.852 0.727476 120.947 1.17733 118.371 2.44861C115.794 3.71989 113.669 5.75136 112.284 8.26865C110.898 10.7859 110.319 13.6678 110.623 16.5249L113.267 16.243C113.021 13.9271 113.49 11.5912 114.613 9.55076C115.736 7.51034 117.458 5.8637 119.547 4.83324C121.636 3.80279 123.99 3.43816 126.293 3.78859C128.595 4.13903 130.735 5.18766 132.422 6.79284C134.11 8.39803 135.264 10.4824 135.729 12.7646C136.194 15.0467 135.948 17.4166 135.023 19.5542C134.099 21.6918 132.54 23.4941 130.558 24.7177C128.577 25.9412 126.267 26.5272 123.942 26.3963L123.94 26.4302L123.9 26.3762L121.687 29.2222C123.892 32.1901 125.241 35.6285 125.619 39.2516C125.998 42.8747 125.396 46.5778 123.863 50.0531C123.809 50.1758 123.754 50.2982 123.698 50.4201C124.715 50.6154 125.716 50.8589 126.696 51.1482Z"/>
</mask>
<path fill-rule="evenodd" clip-rule="evenodd" d="M72.0866 19.0394C74.545 20.5267 76.4878 22.7327 77.6526 25.3594L75.2218 26.4373C74.2777 24.3082 72.7029 22.5201 70.7102 21.3145C68.7174 20.109 66.4027 19.544 64.0786 19.6959C61.7545 19.8479 59.5331 20.7094 57.7142 22.1642C55.8954 23.6189 54.5668 25.5968 53.908 27.8307C53.2491 30.0646 53.2917 32.4469 54.03 34.6558C54.7682 36.8648 56.1666 38.7939 58.0363 40.1828C59.9059 41.5716 62.1567 42.3532 64.4848 42.422C66.8128 42.4908 69.1059 41.8435 71.0543 40.5675L71.0854 40.6151L74.2878 41.9707C73.9083 45.634 74.5093 49.2734 76.0409 52.5863C77.5725 55.8993 79.9905 58.7902 83.0937 61.0186C85.3337 62.6271 87.884 63.8569 90.629 64.6612C90.0972 65.495 89.603 66.355 89.1487 67.239C86.1978 66.3359 83.454 64.9916 81.0331 63.2533C77.5506 60.7524 74.8371 57.5083 73.1183 53.7904C71.807 50.9539 71.032 47.1553 70.9273 43.6881C68.905 44.6653 66.669 45.1467 64.4062 45.0799C61.5341 44.995 58.7572 44.0307 56.4506 42.3173C54.144 40.6039 52.4188 38.2239 51.508 35.4987C50.5972 32.7735 50.5447 29.8345 51.3575 27.0785C52.1704 24.3225 53.8095 21.8824 56.0534 20.0876C58.2973 18.2929 61.0379 17.23 63.9051 17.0426C66.7724 16.8551 69.6281 17.5521 72.0866 19.0394ZM126.696 51.1482C126.726 51.0814 126.756 51.0145 126.786 50.9475C128.506 47.0475 129.181 42.8918 128.756 38.8259C128.433 35.7369 127.227 32.0781 125.58 29.0378C127.831 28.8771 130.02 28.1751 131.955 26.9802C134.4 25.4706 136.323 23.2471 137.464 20.61C138.605 17.9728 138.909 15.049 138.335 12.2336C137.761 9.41808 136.337 6.84652 134.255 4.86618C132.173 2.88585 129.534 1.59215 126.693 1.15981C123.852 0.727476 120.947 1.17733 118.371 2.44861C115.794 3.71989 113.669 5.75136 112.284 8.26865C110.898 10.7859 110.319 13.6678 110.623 16.5249L113.267 16.243C113.021 13.9271 113.49 11.5912 114.613 9.55076C115.736 7.51034 117.458 5.8637 119.547 4.83324C121.636 3.80279 123.99 3.43816 126.293 3.78859C128.595 4.13903 130.735 5.18766 132.422 6.79284C134.11 8.39803 135.264 10.4824 135.729 12.7646C136.194 15.0467 135.948 17.4166 135.023 19.5542C134.099 21.6918 132.54 23.4941 130.558 24.7177C128.577 25.9412 126.267 26.5272 123.942 26.3963L123.94 26.4302L123.9 26.3762L121.687 29.2222C123.892 32.1901 125.241 35.6285 125.619 39.2516C125.998 42.8747 125.396 46.5778 123.863 50.0531C123.809 50.1758 123.754 50.2982 123.698 50.4201C124.715 50.6154 125.716 50.8589 126.696 51.1482Z" fill="black"/>
<path d="M77.6526 25.3594L78.0579 26.2736L78.9721 25.8682L78.5667 24.954L77.6526 25.3594ZM72.0866 19.0394L72.6042 18.1838L72.0866 19.0394ZM75.2218 26.4373L74.3076 26.8426L74.713 27.7568L75.6271 27.3514L75.2218 26.4373ZM70.7102 21.3145L71.2278 20.4589L70.7102 21.3145ZM64.0786 19.6959L64.1439 20.6938L64.0786 19.6959ZM57.7142 22.1642L58.3389 22.9451H58.3389L57.7142 22.1642ZM53.908 27.8307L52.9488 27.5478L53.908 27.8307ZM54.03 34.6558L54.9784 34.3389H54.9784L54.03 34.6558ZM58.0363 40.1828L57.44 40.9855H57.44L58.0363 40.1828ZM64.4848 42.422L64.4552 43.4216L64.4848 42.422ZM71.0543 40.5675L71.8908 40.0196L71.343 39.183L70.5064 39.7309L71.0543 40.5675ZM71.0854 40.6151L70.2488 41.1629L70.4155 41.4174L70.6956 41.5359L71.0854 40.6151ZM74.2878 41.9707L75.2825 42.0738L75.3587 41.3382L74.6776 41.0499L74.2878 41.9707ZM76.0409 52.5863L76.9486 52.1667L76.0409 52.5863ZM83.0937 61.0186L82.5105 61.8309L83.0937 61.0186ZM90.629 64.6612L91.4721 65.1989L92.1883 64.076L90.9102 63.7015L90.629 64.6612ZM89.1487 67.239L88.8561 68.1952L89.6559 68.44L90.0382 67.6961L89.1487 67.239ZM81.0331 63.2533L81.6164 62.441L81.0331 63.2533ZM73.1183 53.7904L74.026 53.3707L73.1183 53.7904ZM70.9273 43.6881L71.9269 43.658L71.8804 42.1171L70.4923 42.7877L70.9273 43.6881ZM64.4062 45.0799L64.3767 46.0794H64.3767L64.4062 45.0799ZM51.508 35.4987L50.5596 35.8157H50.5596L51.508 35.4987ZM51.3575 27.0785L52.3167 27.3614L51.3575 27.0785ZM56.0534 20.0876L56.678 20.8685L56.0534 20.0876ZM63.9051 17.0426L63.8399 16.0447H63.8399L63.9051 17.0426ZM126.696 51.1482L126.413 52.1073L127.249 52.3539L127.608 51.5594L126.696 51.1482ZM126.786 50.9475L125.871 50.544L125.871 50.5441L126.786 50.9475ZM128.756 38.8259L127.762 38.9298L128.756 38.8259ZM125.58 29.0378L125.509 28.0403L123.962 28.1507L124.701 29.514L125.58 29.0378ZM131.955 26.9802L131.43 26.1293H131.43L131.955 26.9802ZM137.464 20.61L136.546 20.2129L136.546 20.2129L137.464 20.61ZM138.335 12.2336L137.355 12.4333V12.4333L138.335 12.2336ZM134.255 4.86618L133.566 5.59075L134.255 4.86618ZM126.693 1.15981L126.542 2.14843L126.693 1.15981ZM118.371 2.44861L118.813 3.34541V3.34541L118.371 2.44861ZM112.284 8.26865L113.16 8.75082V8.75082L112.284 8.26865ZM110.623 16.5249L109.629 16.631L109.735 17.6253L110.729 17.5193L110.623 16.5249ZM113.267 16.243L113.373 17.2374L114.368 17.1313L114.262 16.137L113.267 16.243ZM114.613 9.55076L115.489 10.0329V10.0329L114.613 9.55076ZM119.547 4.83324L119.105 3.93644V3.93645L119.547 4.83324ZM126.293 3.78859L126.443 2.79998V2.79998L126.293 3.78859ZM132.422 6.79284L133.112 6.06827L132.422 6.79284ZM135.729 12.7646L134.75 12.9643L135.729 12.7646ZM135.023 19.5542L135.941 19.9512V19.9512L135.023 19.5542ZM130.558 24.7177L131.084 25.5685L130.558 24.7177ZM123.942 26.3963L123.998 25.3979L123 25.3417L122.943 26.3401L123.942 26.3963ZM123.94 26.4302L123.136 27.0252L124.783 29.2493L124.938 26.4864L123.94 26.4302ZM123.9 26.3762L124.704 25.7812L123.919 24.722L123.11 25.7624L123.9 26.3762ZM121.687 29.2222L120.897 28.6083L120.431 29.2085L120.884 29.8187L121.687 29.2222ZM125.619 39.2516L124.625 39.3555V39.3555L125.619 39.2516ZM123.863 50.0531L124.778 50.4566H124.778L123.863 50.0531ZM123.698 50.4201L122.79 50.0006L122.254 51.1611L123.509 51.4021L123.698 50.4201ZM78.5667 24.954C77.319 22.1402 75.2378 19.7771 72.6042 18.1838L71.5689 19.895C73.8523 21.2764 75.6567 23.3252 76.7384 25.7648L78.5667 24.954ZM75.6271 27.3514L78.0579 26.2736L77.2472 24.4453L74.8164 25.5231L75.6271 27.3514ZM70.1925 22.1701C72.0102 23.2697 73.4465 24.9007 74.3076 26.8426L76.1359 26.0319C75.1089 23.7157 73.3957 21.7704 71.2278 20.4589L70.1925 22.1701ZM64.1439 20.6938C66.2637 20.5552 68.3749 21.0705 70.1925 22.1701L71.2278 20.4589C69.0599 19.1474 66.5417 18.5328 64.0134 18.6981L64.1439 20.6938ZM58.3389 22.9451C59.9978 21.6182 62.024 20.8324 64.1439 20.6938L64.0134 18.6981C61.485 18.8634 59.0683 19.8006 57.0896 21.3832L58.3389 22.9451ZM54.8671 28.1136C55.4681 26.076 56.6799 24.272 58.3389 22.9451L57.0896 21.3832C55.1109 22.9658 53.6656 25.1176 52.9488 27.5478L54.8671 28.1136ZM54.9784 34.3389C54.305 32.3241 54.2662 30.1512 54.8671 28.1136L52.9488 27.5478C52.2321 29.9781 52.2784 32.5697 53.0815 34.9728L54.9784 34.3389ZM58.6326 39.38C56.9273 38.1132 55.6518 36.3536 54.9784 34.3389L53.0815 34.9728C53.8847 37.3759 55.406 39.4746 57.44 40.9855L58.6326 39.38ZM64.5143 41.4224C62.3909 41.3597 60.3379 40.6468 58.6326 39.38L57.44 40.9855C59.4739 42.4964 61.9226 43.3467 64.4552 43.4216L64.5143 41.4224ZM70.5064 39.7309C68.7292 40.8948 66.6377 41.4852 64.5143 41.4224L64.4552 43.4216C66.9879 43.4964 69.4825 42.7922 71.6021 41.404L70.5064 39.7309ZM71.922 40.0672L71.8908 40.0196L70.2177 41.1153L70.2488 41.1629L71.922 40.0672ZM74.6776 41.0499L71.4753 39.6942L70.6956 41.5359L73.8979 42.8916L74.6776 41.0499ZM76.9486 52.1667C75.4932 49.0185 74.9213 45.5599 75.2825 42.0738L73.2931 41.8677C72.8953 45.7081 73.5255 49.5282 75.1332 53.006L76.9486 52.1667ZM83.677 60.2063C80.7072 58.0737 78.4044 55.3155 76.9486 52.1667L75.1332 53.006C76.7407 56.4831 79.2738 59.5066 82.5105 61.8309L83.677 60.2063ZM90.9102 63.7015C88.2684 62.9275 85.8211 61.746 83.677 60.2063L82.5105 61.8309C84.8462 63.5082 87.4996 64.7863 90.3478 65.6208L90.9102 63.7015ZM90.0382 67.6961C90.4782 66.8398 90.9569 66.0067 91.4721 65.1989L89.7859 64.1234C89.2375 64.9833 88.7278 65.8702 88.2593 66.7819L90.0382 67.6961ZM80.4499 64.0655C82.963 65.8702 85.8058 67.2617 88.8561 68.1952L89.4414 66.2828C86.5898 65.4101 83.9449 64.1131 81.6164 62.441L80.4499 64.0655ZM72.2106 54.21C74.0053 58.092 76.8339 61.4689 80.4499 64.0655L81.6164 62.441C78.2673 60.036 75.669 56.9245 74.026 53.3707L72.2106 54.21ZM69.9278 43.7183C70.0356 47.2896 70.8312 51.2262 72.2106 54.21L74.026 53.3707C72.7828 50.6816 72.0284 47.0211 71.9269 43.658L69.9278 43.7183ZM64.3767 46.0794C66.8006 46.1511 69.1959 45.6353 71.3624 44.5886L70.4923 42.7877C68.614 43.6952 66.5373 44.1424 64.4358 44.0803L64.3767 46.0794ZM55.8543 43.1201C58.3253 44.9556 61.3 45.9885 64.3767 46.0794L64.4358 44.0803C61.7683 44.0015 59.1892 43.1059 57.047 41.5146L55.8543 43.1201ZM50.5596 35.8157C51.5353 38.735 53.3834 41.2846 55.8543 43.1201L57.047 41.5146C54.9047 39.9232 53.3024 37.7128 52.4565 35.1817L50.5596 35.8157ZM50.3984 26.7956C49.5276 29.7479 49.5839 32.8964 50.5596 35.8157L52.4565 35.1817C51.6105 32.6507 51.5618 29.921 52.3167 27.3614L50.3984 26.7956ZM55.4287 19.3067C53.025 21.2293 51.2692 23.8433 50.3984 26.7956L52.3167 27.3614C53.0716 24.8017 54.5939 22.5354 56.678 20.8685L55.4287 19.3067ZM63.8399 16.0447C60.7684 16.2455 57.8325 17.3841 55.4287 19.3067L56.678 20.8685C58.762 19.2017 61.3074 18.2145 63.9704 18.0404L63.8399 16.0447ZM72.6042 18.1838C69.9706 16.5905 66.9114 15.8439 63.8399 16.0447L63.9704 18.0404C66.6334 17.8663 69.2856 18.5137 71.5689 19.895L72.6042 18.1838ZM127.608 51.5594C127.639 51.4901 127.67 51.4206 127.701 51.3509L125.871 50.5441C125.842 50.6084 125.814 50.6727 125.785 50.7369L127.608 51.5594ZM127.701 51.351C129.488 47.2987 130.195 42.9686 129.751 38.7219L127.762 38.9298C128.168 42.815 127.523 46.7962 125.871 50.544L127.701 51.351ZM129.751 38.7219C129.412 35.4832 128.159 31.6989 126.459 28.5615L124.701 29.514C126.295 32.4574 127.454 35.9906 127.762 38.9298L129.751 38.7219ZM125.651 30.0352C128.063 29.8631 130.407 29.1111 132.481 27.8311L131.43 26.1293C129.633 27.2391 127.6 27.8911 125.509 28.0403L125.651 30.0352ZM132.481 27.8311C135.1 26.214 137.159 23.832 138.382 21.007L136.546 20.2129C135.486 22.6622 133.701 24.7273 131.43 26.1293L132.481 27.8311ZM138.382 21.007C139.604 18.182 139.929 15.0499 139.315 12.0339L137.355 12.4333C137.888 15.0482 137.606 17.7636 136.546 20.2129L138.382 21.007ZM139.315 12.0339C138.7 9.01779 137.175 6.26303 134.944 4.14162L133.566 5.59075C135.499 7.43 136.822 9.81836 137.355 12.4333L139.315 12.0339ZM134.944 4.14162C132.714 2.0202 129.886 0.634336 126.843 0.171198L126.542 2.14843C129.181 2.54997 131.632 3.7515 133.566 5.59075L134.944 4.14162ZM126.843 0.171198C123.8 -0.29194 120.689 0.18996 117.928 1.55181L118.813 3.34541C121.206 2.1647 123.904 1.74689 126.542 2.14843L126.843 0.171198ZM117.928 1.55181C115.168 2.91366 112.892 5.08986 111.408 7.78648L113.16 8.75082C114.447 6.41287 116.42 4.52612 118.813 3.34541L117.928 1.55181ZM111.408 7.78648C109.923 10.4831 109.303 13.5702 109.629 16.631L111.618 16.4189C111.335 13.7653 111.873 11.0888 113.16 8.75082L111.408 7.78648ZM110.729 17.5193L113.373 17.2374L113.161 15.2486L110.517 15.5306L110.729 17.5193ZM114.262 16.137C114.037 14.0246 114.465 11.894 115.489 10.0329L113.737 9.06859C112.515 11.2884 112.004 13.8296 112.273 16.349L114.262 16.137ZM115.489 10.0329C116.514 8.17184 118.084 6.66993 119.989 5.73004L119.105 3.93645C116.832 5.05747 114.959 6.84883 113.737 9.06859L115.489 10.0329ZM119.989 5.73004C121.895 4.79016 124.042 4.45757 126.142 4.77721L126.443 2.79998C123.938 2.41874 121.377 2.81542 119.105 3.93644L119.989 5.73004ZM126.142 4.77721C128.243 5.09685 130.194 6.0533 131.733 7.51741L133.112 6.06827C131.276 4.32201 128.948 3.18122 126.443 2.79998L126.142 4.77721ZM131.733 7.51741C133.272 8.98151 134.325 10.8827 134.75 12.9643L136.709 12.5649C136.203 10.0822 134.948 7.81454 133.112 6.06827L131.733 7.51741ZM134.75 12.9643C135.174 15.0458 134.949 17.2074 134.105 19.1571L135.941 19.9512C136.947 17.6258 137.215 15.0476 136.709 12.5649L134.75 12.9643ZM134.105 19.1571C133.262 21.1068 131.841 22.7507 130.033 23.8668L131.084 25.5685C133.24 24.2374 134.935 22.2767 135.941 19.9512L134.105 19.1571ZM130.033 23.8668C128.225 24.9828 126.119 25.5173 123.998 25.3979L123.886 27.3948C126.415 27.5371 128.928 26.8997 131.084 25.5685L130.033 23.8668ZM122.943 26.3401L122.941 26.374L124.938 26.4864L124.94 26.4526L122.943 26.3401ZM124.744 25.8352L124.704 25.7812L123.096 26.9712L123.136 27.0252L124.744 25.8352ZM123.11 25.7624L120.897 28.6083L122.476 29.8361L124.689 26.9901L123.11 25.7624ZM120.884 29.8187C122.985 32.6449 124.265 35.9137 124.625 39.3555L126.614 39.1477C126.216 35.3434 124.8 31.7353 122.489 28.6257L120.884 29.8187ZM124.625 39.3555C124.984 42.7979 124.414 46.3266 122.948 49.6496L124.778 50.4566C126.378 46.829 127.011 42.9515 126.614 39.1477L124.625 39.3555ZM122.948 49.6496C122.897 49.767 122.844 49.884 122.79 50.0006L124.606 50.8395C124.664 50.7123 124.722 50.5846 124.778 50.4566L122.948 49.6496ZM123.509 51.4021C124.495 51.5913 125.464 51.8272 126.413 52.1073L126.979 50.189C125.967 49.8907 124.936 49.6395 123.886 49.438L123.509 51.4021Z" fill="black" mask="url(#path-10-outside-1_164_11)"/>
<path fill-rule="evenodd" clip-rule="evenodd" d="M3.894 93.2892L54.044 116.063C55.0667 116.457 55.932 116.575 56.64 116.417C57.4267 116.181 58.056 115.788 58.528 115.237C59 114.608 59.236 113.9 59.236 113.113C59.3147 112.327 59.1967 111.619 58.882 110.989C58.5673 110.281 57.8987 109.691 56.876 109.219L9.4046 87.9792L56.876 66.7392C57.8987 66.2672 58.5673 65.7165 58.882 65.0872C59.1967 64.3792 59.3147 63.6318 59.236 62.8452C59.236 62.0585 59 61.3898 58.528 60.8392C58.056 60.2098 57.4267 59.7772 56.64 59.5412C55.932 59.3052 55.0667 59.4232 54.044 59.8952L3.894 82.6692C2.63533 83.2198 1.652 83.9278 0.944 84.7932C0.314667 85.6585 0 86.7205 0 87.9792C0 90.4178 1.298 92.1878 3.894 93.2892ZM111.442 128.099C112.15 127.627 112.7 126.88 113.094 125.857L116.951 113.845H108.575L105.424 123.615C105.109 124.638 105.109 125.543 105.424 126.329C105.738 127.116 106.21 127.706 106.84 128.099C107.548 128.571 108.334 128.807 109.2 128.807C110.065 128.807 110.812 128.571 111.442 128.099ZM117.927 84.8452H126.264L141.06 38.7732C141.374 37.7505 141.374 36.8458 141.06 36.0592C140.824 35.2725 140.352 34.6825 139.644 34.2892C139.014 33.8172 138.267 33.5812 137.402 33.5812C136.615 33.5812 135.868 33.8172 135.16 34.2892C134.452 34.7612 133.901 35.5085 133.508 36.5312L117.927 84.8452Z" fill="black"/>
<path d="M116.528 119.745C108.995 119.745 102.628 118.312 97.4279 115.445C92.2946 112.579 88.3946 108.445 85.7279 103.045C83.0613 97.6452 81.7279 91.1785 81.7279 83.6452C81.7279 78.0452 82.4613 73.0119 83.9279 68.5452C85.4613 64.0785 87.6613 60.3119 90.5279 57.2452C93.4613 54.1119 96.9946 51.7119 101.128 50.0452C105.328 48.3119 110.061 47.4452 115.328 47.4452C119.528 47.4452 123.595 48.0452 127.528 49.2452C131.461 50.3785 134.961 52.2119 138.028 54.7452C138.828 55.3452 139.328 56.0119 139.528 56.7452C139.728 57.4785 139.695 58.2119 139.428 58.9452C139.228 59.6785 138.861 60.3119 138.328 60.8452C137.861 61.3119 137.228 61.5785 136.428 61.6452C135.695 61.7119 134.928 61.4785 134.128 60.9452C131.395 58.8119 128.495 57.2785 125.428 56.3452C122.361 55.3452 118.961 54.8452 115.228 54.8452C109.895 54.8452 105.361 55.9785 101.628 58.2452C97.9613 60.5119 95.1613 63.7785 93.2279 68.0452C91.3613 72.3119 90.4279 77.5119 90.4279 83.6452C90.4279 92.9785 92.5946 100.112 96.9279 105.045C101.328 109.979 107.928 112.445 116.728 112.445C119.928 112.445 123.061 112.145 126.128 111.545C129.195 110.879 132.095 109.979 134.828 108.845L133.028 113.545V88.6452H118.728C117.528 88.6452 116.628 88.3452 116.028 87.7452C115.428 87.1452 115.128 86.3452 115.128 85.3452C115.128 84.2785 115.428 83.4785 116.028 82.9452C116.628 82.4119 117.528 82.1452 118.728 82.1452H136.628C137.761 82.1452 138.628 82.4452 139.228 83.0452C139.828 83.6452 140.128 84.5119 140.128 85.6452V111.745C140.128 112.745 139.961 113.579 139.628 114.245C139.295 114.912 138.728 115.412 137.928 115.745C135.128 116.879 131.761 117.845 127.828 118.645C123.961 119.379 120.195 119.745 116.528 119.745Z" fill="black"/>
</svg>
