<svg width="211" height="154" viewBox="0 0 211 154" fill="none" xmlns="http://www.w3.org/2000/svg">
<path d="M89.4851 34.8855C90.0674 37.0585 89.0084 39.0896 87.3132 39.5438C85.6181 39.998 83.6854 38.7686 83.1031 36.5955C82.5209 34.4225 83.5799 32.3914 85.275 31.9372C86.9702 31.483 88.9029 32.7124 89.4851 34.8855Z" stroke="black"/>
<path d="M111.529 28.9789C112.111 31.1519 111.052 33.183 109.357 33.6372C107.662 34.0914 105.729 32.8619 105.147 30.6889C104.565 28.5159 105.624 26.4848 107.319 26.0306C109.014 25.5764 110.947 26.8058 111.529 28.9789Z" stroke="black"/>
<path d="M84.0088 37.0091C83.9226 36.6875 83.9007 36.352 83.9441 36.0218C83.9876 35.6917 84.0956 35.3734 84.2621 35.085C84.4286 34.7966 84.6503 34.5438 84.9145 34.3411C85.1787 34.1384 85.4802 33.9897 85.8018 33.9035C86.1235 33.8173 86.459 33.7954 86.7891 33.8388C87.1192 33.8823 87.4376 33.9903 87.726 34.1568C88.0144 34.3233 88.2671 34.545 88.4698 34.8092C88.6725 35.0734 88.8212 35.3749 88.9074 35.6965L88.2792 35.8649C88.2152 35.6257 88.1046 35.4015 87.9539 35.2051C87.8032 35.0087 87.6152 34.8439 87.4008 34.7201C87.1864 34.5963 86.9497 34.5159 86.7042 34.4836C86.4587 34.4513 86.2093 34.4676 85.9702 34.5317C85.731 34.5958 85.5068 34.7064 85.3104 34.8571C85.114 35.0078 84.9492 35.1957 84.8254 35.4101C84.7016 35.6246 84.6212 35.8613 84.5889 36.1067C84.5566 36.3522 84.5729 36.6016 84.637 36.8408L84.0088 37.0091Z" fill="black"/>
<path d="M63.7007 38.5003C62.7697 38.1227 61.9222 37.5654 61.2066 36.8603C60.491 36.1551 59.9213 35.3159 59.53 34.3906C59.1387 33.4653 58.9335 32.472 58.9261 31.4673C58.9187 30.4627 59.1092 29.4665 59.4869 28.5355C59.8645 27.6045 60.4218 26.757 61.1269 26.0414C61.8321 25.3258 62.6713 24.7561 63.5966 24.3648C64.5219 23.9735 65.5152 23.7683 66.5199 23.7609C67.5245 23.7535 68.5207 23.944 69.4517 24.3217L68.7142 26.1399C68.022 25.8591 67.2813 25.7174 66.5343 25.7229C65.7873 25.7284 65.0488 25.881 64.3608 26.172C63.6728 26.4629 63.0488 26.8865 62.5245 27.4186C62.0002 27.9506 61.5859 28.5808 61.3051 29.273C61.0243 29.9652 60.8826 30.7059 60.8882 31.4529C60.8937 32.1998 61.0462 32.9384 61.3372 33.6264C61.6281 34.3144 62.0517 34.9384 62.5838 35.4627C63.1158 35.987 63.746 36.4013 64.4382 36.6821L63.7007 38.5003Z" fill="black"/>
<path d="M130.571 20.5823C131.188 19.7898 131.643 18.8834 131.911 17.9149C132.178 16.9464 132.252 15.9348 132.128 14.9378C132.004 13.9408 131.685 12.978 131.189 12.1042C130.693 11.2305 130.03 10.463 129.238 9.84557C128.445 9.22812 127.539 8.77282 126.57 8.50565C125.602 8.23849 124.59 8.1647 123.593 8.2885C122.596 8.41229 121.633 8.73125 120.759 9.22716C119.886 9.72307 119.118 10.3862 118.501 11.1787L120.049 12.3846C120.508 11.7954 121.078 11.3023 121.728 10.9336C122.378 10.5649 123.094 10.3277 123.835 10.2357C124.576 10.1436 125.328 10.1985 126.048 10.3971C126.768 10.5958 127.442 10.9343 128.032 11.3934C128.621 11.8525 129.114 12.4231 129.483 13.0728C129.851 13.7224 130.089 14.4383 130.181 15.1796C130.273 15.9209 130.218 16.6731 130.019 17.3932C129.82 18.1132 129.482 18.7872 129.023 19.3764L130.571 20.5823Z" fill="black"/>
<path d="M89.3096 35.0092C89.9447 33.8164 90.9157 32.7185 92.1426 31.806C93.3694 30.8935 94.8168 30.1925 96.3656 29.761C97.9143 29.3294 99.52 29.1796 101.05 29.3239C102.58 29.4682 103.991 29.9025 105.166 30.5909L104.64 31.0999C103.557 30.4656 102.257 30.0654 100.847 29.9325C99.4371 29.7995 97.9575 29.9376 96.5304 30.3352C95.1033 30.7329 93.7695 31.3788 92.639 32.2196C91.5085 33.0605 90.6138 34.0722 90.0285 35.1713L89.3096 35.0092Z" fill="black"/>
<path d="M106.206 31.1826C106.116 30.845 106.09 30.4938 106.129 30.149C106.168 29.8042 106.273 29.4726 106.436 29.173C106.599 28.8735 106.819 28.6119 107.081 28.4031C107.343 28.1944 107.644 28.0426 107.965 27.9565C108.286 27.8704 108.622 27.8516 108.954 27.9012C109.286 27.9508 109.606 28.0679 109.897 28.2456C110.188 28.4234 110.445 28.6584 110.651 28.9373C110.858 29.2162 111.011 29.5335 111.101 29.871L110.473 30.0392C110.406 29.7882 110.292 29.5523 110.139 29.345C109.985 29.1376 109.795 28.9629 109.578 28.8307C109.362 28.6985 109.123 28.6115 108.877 28.5746C108.63 28.5377 108.381 28.5517 108.142 28.6157C107.903 28.6798 107.679 28.7926 107.484 28.9478C107.289 29.103 107.126 29.2975 107.005 29.5202C106.883 29.743 106.806 29.9896 106.777 30.2459C106.747 30.5023 106.767 30.7634 106.834 31.0144L106.206 31.1826Z" fill="black"/>
<path d="M95.1819 36.6629C94.8998 35.2492 95.7635 33.8594 97.1559 33.4863V33.4863C98.4897 33.1289 99.8806 33.8219 100.399 35.1018L103.295 42.258C104.075 44.1856 102.991 46.3611 100.982 46.8993V46.8993C99.0508 47.4169 97.0839 46.1946 96.6926 44.2336L95.1819 36.6629Z" fill="black"/>
<mask id="path-9-outside-1_174_15" maskUnits="userSpaceOnUse" x="49.7842" y="0" width="90" height="69" fill="black">
<rect fill="white" x="49.7842" width="90" height="69"/>
<path fill-rule="evenodd" clip-rule="evenodd" d="M72.0866 19.0394C74.545 20.5267 76.4878 22.7327 77.6526 25.3594L75.2218 26.4373C74.2777 24.3082 72.7029 22.5201 70.7102 21.3145C68.7174 20.109 66.4027 19.544 64.0786 19.6959C61.7545 19.8479 59.5331 20.7094 57.7142 22.1642C55.8954 23.6189 54.5668 25.5968 53.908 27.8307C53.2491 30.0646 53.2917 32.4469 54.03 34.6558C54.7682 36.8648 56.1666 38.7939 58.0363 40.1828C59.9059 41.5716 62.1567 42.3532 64.4848 42.422C66.8128 42.4908 69.1059 41.8435 71.0543 40.5675L71.0854 40.6151L74.2878 41.9707C73.9083 45.634 74.5093 49.2734 76.0409 52.5863C77.5725 55.8993 79.9905 58.7902 83.0937 61.0186C85.3337 62.6271 87.884 63.8569 90.629 64.6612C90.0972 65.495 89.603 66.355 89.1487 67.239C86.1978 66.3359 83.454 64.9916 81.0331 63.2533C77.5506 60.7524 74.8371 57.5083 73.1183 53.7904C71.807 50.9539 71.032 47.1553 70.9273 43.6881C68.905 44.6653 66.669 45.1467 64.4062 45.0799C61.5341 44.995 58.7572 44.0307 56.4506 42.3173C54.144 40.6039 52.4188 38.2239 51.508 35.4987C50.5972 32.7735 50.5447 29.8345 51.3575 27.0785C52.1704 24.3225 53.8095 21.8823 56.0534 20.0876C58.2973 18.2929 61.0379 17.23 63.9051 17.0426C66.7724 16.8551 69.6281 17.5521 72.0866 19.0394ZM126.696 51.1481C126.726 51.0814 126.756 51.0145 126.786 50.9475C128.506 47.0475 129.181 42.8918 128.756 38.8259C128.433 35.7369 127.227 32.0781 125.58 29.0378C127.831 28.8771 130.02 28.1751 131.955 26.9802C134.4 25.4706 136.323 23.2471 137.464 20.61C138.605 17.9728 138.909 15.049 138.335 12.2336C137.761 9.41808 136.337 6.84652 134.255 4.86618C132.173 2.88585 129.534 1.59215 126.693 1.15981C123.852 0.727476 120.947 1.17733 118.371 2.44861C115.794 3.71989 113.669 5.75136 112.284 8.26865C110.898 10.7859 110.319 13.6678 110.623 16.5249L113.267 16.243C113.021 13.9271 113.49 11.5912 114.613 9.55076C115.736 7.51034 117.458 5.8637 119.547 4.83324C121.636 3.80279 123.99 3.43816 126.293 3.78859C128.595 4.13903 130.735 5.18766 132.422 6.79284C134.11 8.39803 135.264 10.4824 135.729 12.7646C136.194 15.0467 135.948 17.4166 135.023 19.5542C134.099 21.6918 132.54 23.4941 130.558 24.7177C128.577 25.9413 126.267 26.5272 123.942 26.3963L123.94 26.4302L123.9 26.3762L121.687 29.2222C123.892 32.1901 125.241 35.6285 125.619 39.2516C125.998 42.8747 125.396 46.5778 123.863 50.0531C123.809 50.1758 123.754 50.2981 123.698 50.42C124.715 50.6153 125.716 50.8589 126.696 51.1481Z"/>
</mask>
<path fill-rule="evenodd" clip-rule="evenodd" d="M72.0866 19.0394C74.545 20.5267 76.4878 22.7327 77.6526 25.3594L75.2218 26.4373C74.2777 24.3082 72.7029 22.5201 70.7102 21.3145C68.7174 20.109 66.4027 19.544 64.0786 19.6959C61.7545 19.8479 59.5331 20.7094 57.7142 22.1642C55.8954 23.6189 54.5668 25.5968 53.908 27.8307C53.2491 30.0646 53.2917 32.4469 54.03 34.6558C54.7682 36.8648 56.1666 38.7939 58.0363 40.1828C59.9059 41.5716 62.1567 42.3532 64.4848 42.422C66.8128 42.4908 69.1059 41.8435 71.0543 40.5675L71.0854 40.6151L74.2878 41.9707C73.9083 45.634 74.5093 49.2734 76.0409 52.5863C77.5725 55.8993 79.9905 58.7902 83.0937 61.0186C85.3337 62.6271 87.884 63.8569 90.629 64.6612C90.0972 65.495 89.603 66.355 89.1487 67.239C86.1978 66.3359 83.454 64.9916 81.0331 63.2533C77.5506 60.7524 74.8371 57.5083 73.1183 53.7904C71.807 50.9539 71.032 47.1553 70.9273 43.6881C68.905 44.6653 66.669 45.1467 64.4062 45.0799C61.5341 44.995 58.7572 44.0307 56.4506 42.3173C54.144 40.6039 52.4188 38.2239 51.508 35.4987C50.5972 32.7735 50.5447 29.8345 51.3575 27.0785C52.1704 24.3225 53.8095 21.8823 56.0534 20.0876C58.2973 18.2929 61.0379 17.23 63.9051 17.0426C66.7724 16.8551 69.6281 17.5521 72.0866 19.0394ZM126.696 51.1481C126.726 51.0814 126.756 51.0145 126.786 50.9475C128.506 47.0475 129.181 42.8918 128.756 38.8259C128.433 35.7369 127.227 32.0781 125.58 29.0378C127.831 28.8771 130.02 28.1751 131.955 26.9802C134.4 25.4706 136.323 23.2471 137.464 20.61C138.605 17.9728 138.909 15.049 138.335 12.2336C137.761 9.41808 136.337 6.84652 134.255 4.86618C132.173 2.88585 129.534 1.59215 126.693 1.15981C123.852 0.727476 120.947 1.17733 118.371 2.44861C115.794 3.71989 113.669 5.75136 112.284 8.26865C110.898 10.7859 110.319 13.6678 110.623 16.5249L113.267 16.243C113.021 13.9271 113.49 11.5912 114.613 9.55076C115.736 7.51034 117.458 5.8637 119.547 4.83324C121.636 3.80279 123.99 3.43816 126.293 3.78859C128.595 4.13903 130.735 5.18766 132.422 6.79284C134.11 8.39803 135.264 10.4824 135.729 12.7646C136.194 15.0467 135.948 17.4166 135.023 19.5542C134.099 21.6918 132.54 23.4941 130.558 24.7177C128.577 25.9413 126.267 26.5272 123.942 26.3963L123.94 26.4302L123.9 26.3762L121.687 29.2222C123.892 32.1901 125.241 35.6285 125.619 39.2516C125.998 42.8747 125.396 46.5778 123.863 50.0531C123.809 50.1758 123.754 50.2981 123.698 50.42C124.715 50.6153 125.716 50.8589 126.696 51.1481Z" fill="black"/>
<path d="M77.6526 25.3594L78.0579 26.2736L78.9721 25.8682L78.5667 24.954L77.6526 25.3594ZM72.0866 19.0394L71.5689 19.895L71.5689 19.895L72.0866 19.0394ZM75.2218 26.4373L74.3076 26.8426L74.713 27.7568L75.6271 27.3514L75.2218 26.4373ZM64.0786 19.6959L64.0134 18.6981L64.0134 18.6981L64.0786 19.6959ZM57.7142 22.1642L57.0896 21.3832L57.0896 21.3832L57.7142 22.1642ZM53.908 27.8307L52.9488 27.5478L52.9488 27.5478L53.908 27.8307ZM58.0363 40.1828L57.44 40.9855L57.44 40.9855L58.0363 40.1828ZM64.4848 42.422L64.4552 43.4216L64.4848 42.422ZM71.0543 40.5675L71.8908 40.0196L71.3429 39.1831L70.5064 39.7309L71.0543 40.5675ZM71.0854 40.6151L70.2489 41.1629L70.4155 41.4174L70.6956 41.5359L71.0854 40.6151ZM74.2878 41.9707L75.2825 42.0738L75.3587 41.3382L74.6776 41.0499L74.2878 41.9707ZM76.0409 52.5863L76.9486 52.1667L76.9486 52.1667L76.0409 52.5863ZM83.0937 61.0186L82.5105 61.8309L82.5105 61.8309L83.0937 61.0186ZM90.629 64.6612L91.4721 65.1989L92.1883 64.076L90.9102 63.7015L90.629 64.6612ZM89.1487 67.239L88.8561 68.1952L89.6559 68.44L90.0382 67.6961L89.1487 67.239ZM81.0331 63.2533L81.6164 62.441L81.6164 62.441L81.0331 63.2533ZM73.1183 53.7904L74.026 53.3707L74.026 53.3707L73.1183 53.7904ZM70.9273 43.6881L71.9269 43.658L71.8803 42.1171L70.4923 42.7877L70.9273 43.6881ZM64.4062 45.0799L64.3767 46.0794L64.3767 46.0794L64.4062 45.0799ZM56.4506 42.3173L55.8543 43.1201L55.8543 43.1201L56.4506 42.3173ZM51.508 35.4987L52.4565 35.1817L52.4565 35.1817L51.508 35.4987ZM51.3575 27.0785L50.3984 26.7956L50.3984 26.7956L51.3575 27.0785ZM56.0534 20.0876L55.4287 19.3067L55.4287 19.3067L56.0534 20.0876ZM63.9051 17.0426L63.8399 16.0447L63.8399 16.0447L63.9051 17.0426ZM126.696 51.1481L126.413 52.1073L127.249 52.3538L127.608 51.5594L126.696 51.1481ZM126.786 50.9475L125.871 50.544L125.871 50.5441L126.786 50.9475ZM128.756 38.8259L127.762 38.9298L127.762 38.9298L128.756 38.8259ZM125.58 29.0378L125.509 28.0403L123.962 28.1507L124.701 29.514L125.58 29.0378ZM131.955 26.9802L131.43 26.1293L131.43 26.1293L131.955 26.9802ZM138.335 12.2336L137.355 12.4333L137.355 12.4333L138.335 12.2336ZM134.255 4.86618L133.566 5.59075L133.566 5.59075L134.255 4.86618ZM126.693 1.15981L126.542 2.14843L126.542 2.14843L126.693 1.15981ZM118.371 2.44861L117.928 1.55181L117.928 1.55181L118.371 2.44861ZM112.284 8.26865L113.16 8.75082L113.16 8.75082L112.284 8.26865ZM110.623 16.5249L109.629 16.631L109.735 17.6253L110.729 17.5193L110.623 16.5249ZM113.267 16.243L113.373 17.2374L114.368 17.1313L114.262 16.137L113.267 16.243ZM114.613 9.55076L113.737 9.06859L113.737 9.06859L114.613 9.55076ZM119.547 4.83324L119.989 5.73004L119.989 5.73004L119.547 4.83324ZM132.422 6.79284L133.112 6.06827L133.112 6.06827L132.422 6.79284ZM135.729 12.7646L134.75 12.9643L134.75 12.9643L135.729 12.7646ZM135.023 19.5542L134.105 19.1571L134.105 19.1571L135.023 19.5542ZM130.558 24.7177L130.033 23.8668L130.033 23.8668L130.558 24.7177ZM123.942 26.3963L123.998 25.3979L123 25.3417L122.943 26.3401L123.942 26.3963ZM123.94 26.4302L123.136 27.0251L124.783 29.2496L124.938 26.4864L123.94 26.4302ZM123.9 26.3762L124.704 25.7813L123.92 24.7219L123.11 25.7624L123.9 26.3762ZM121.687 29.2222L120.897 28.6083L120.431 29.2085L120.884 29.8187L121.687 29.2222ZM125.619 39.2516L126.614 39.1477L126.614 39.1477L125.619 39.2516ZM123.863 50.0531L124.778 50.4566L124.778 50.4566L123.863 50.0531ZM123.698 50.42L122.79 50.0006L122.254 51.161L123.509 51.4021L123.698 50.42ZM78.5667 24.954C77.319 22.1402 75.2378 19.7771 72.6042 18.1838L71.5689 19.895C73.8523 21.2764 75.6567 23.3252 76.7384 25.7648L78.5667 24.954ZM75.6271 27.3514L78.0579 26.2736L77.2472 24.4453L74.8164 25.5231L75.6271 27.3514ZM70.1925 22.1701C72.0101 23.2697 73.4465 24.9007 74.3076 26.8426L76.1359 26.0319C75.1089 23.7157 73.3957 21.7704 71.2278 20.4589L70.1925 22.1701ZM64.1438 20.6938C66.2637 20.5552 68.3749 21.0705 70.1925 22.1701L71.2278 20.4589C69.0599 19.1474 66.5417 18.5328 64.0134 18.6981L64.1438 20.6938ZM58.3389 22.9451C59.9978 21.6182 62.024 20.8324 64.1438 20.6938L64.0134 18.6981C61.485 18.8634 59.0683 19.8006 57.0896 21.3832L58.3389 22.9451ZM54.8671 28.1136C55.4681 26.076 56.6799 24.272 58.3389 22.9451L57.0896 21.3832C55.1109 22.9658 53.6656 25.1176 52.9488 27.5478L54.8671 28.1136ZM54.9784 34.3389C54.305 32.3241 54.2662 30.1512 54.8671 28.1136L52.9488 27.5478C52.2321 29.9781 52.2784 32.5697 53.0815 34.9728L54.9784 34.3389ZM58.6326 39.38C56.9273 38.1132 55.6518 36.3536 54.9784 34.3389L53.0815 34.9728C53.8847 37.3759 55.406 39.4746 57.44 40.9855L58.6326 39.38ZM64.5143 41.4224C62.3909 41.3597 60.3379 40.6468 58.6326 39.38L57.44 40.9855C59.4739 42.4964 61.9226 43.3467 64.4552 43.4216L64.5143 41.4224ZM70.5064 39.7309C68.7292 40.8948 66.6377 41.4852 64.5143 41.4224L64.4552 43.4216C66.9879 43.4964 69.4825 42.7922 71.6021 41.404L70.5064 39.7309ZM71.922 40.0672L71.8908 40.0196L70.2177 41.1154L70.2489 41.1629L71.922 40.0672ZM74.6776 41.0499L71.4753 39.6942L70.6956 41.5359L73.8979 42.8916L74.6776 41.0499ZM76.9486 52.1667C75.4932 49.0185 74.9213 45.5599 75.2825 42.0738L73.2931 41.8677C72.8953 45.7081 73.5255 49.5282 75.1332 53.006L76.9486 52.1667ZM83.677 60.2063C80.7072 58.0737 78.4044 55.3155 76.9486 52.1667L75.1332 53.006C76.7407 56.4831 79.2738 59.5066 82.5105 61.8309L83.677 60.2063ZM90.9102 63.7015C88.2684 62.9275 85.8211 61.746 83.677 60.2063L82.5105 61.8309C84.8463 63.5082 87.4996 64.7863 90.3478 65.6208L90.9102 63.7015ZM90.0382 67.6961C90.4782 66.8398 90.9569 66.0067 91.4721 65.1989L89.7859 64.1234C89.2375 64.9833 88.7278 65.8702 88.2593 66.7819L90.0382 67.6961ZM80.4499 64.0655C82.963 65.8702 85.8058 67.2617 88.8561 68.1952L89.4414 66.2828C86.5898 65.4101 83.9449 64.1131 81.6164 62.441L80.4499 64.0655ZM72.2106 54.21C74.0053 58.092 76.8339 61.4689 80.4499 64.0655L81.6164 62.441C78.2673 60.036 75.669 56.9245 74.026 53.3707L72.2106 54.21ZM69.9278 43.7183C70.0356 47.2896 70.8312 51.2262 72.2106 54.21L74.026 53.3707C72.7828 50.6816 72.0284 47.0211 71.9269 43.658L69.9278 43.7183ZM64.3767 46.0794C66.8006 46.1511 69.1959 45.6353 71.3624 44.5886L70.4923 42.7877C68.614 43.6952 66.5373 44.1424 64.4358 44.0803L64.3767 46.0794ZM55.8543 43.1201C58.3253 44.9556 61.3 45.9885 64.3767 46.0794L64.4358 44.0803C61.7683 44.0015 59.1892 43.1059 57.047 41.5146L55.8543 43.1201ZM50.5596 35.8157C51.5353 38.735 53.3834 41.2846 55.8543 43.1201L57.047 41.5146C54.9047 39.9232 53.3024 37.7128 52.4565 35.1817L50.5596 35.8157ZM50.3984 26.7956C49.5276 29.7479 49.5839 32.8964 50.5596 35.8157L52.4565 35.1817C51.6105 32.6507 51.5618 29.921 52.3167 27.3614L50.3984 26.7956ZM55.4287 19.3067C53.025 21.2293 51.2692 23.8433 50.3984 26.7956L52.3167 27.3614C53.0716 24.8017 54.5939 22.5354 56.678 20.8685L55.4287 19.3067ZM63.8399 16.0447C60.7684 16.2455 57.8325 17.3841 55.4287 19.3067L56.678 20.8685C58.762 19.2017 61.3074 18.2145 63.9704 18.0404L63.8399 16.0447ZM72.6042 18.1838C69.9706 16.5905 66.9114 15.8439 63.8399 16.0447L63.9704 18.0404C66.6334 17.8663 69.2856 18.5137 71.5689 19.895L72.6042 18.1838ZM127.608 51.5594C127.639 51.49 127.67 51.4205 127.701 51.351L125.871 50.5441C125.842 50.6084 125.814 50.6727 125.785 50.7368L127.608 51.5594ZM127.701 51.351C129.488 47.2987 130.195 42.9686 129.751 38.7219L127.762 38.9298C128.168 42.815 127.523 46.7962 125.871 50.544L127.701 51.351ZM129.751 38.7219C129.412 35.4832 128.159 31.6989 126.459 28.5615L124.701 29.514C126.295 32.4574 127.454 35.9906 127.762 38.9298L129.751 38.7219ZM125.651 30.0352C128.063 29.8631 130.407 29.1111 132.481 27.8311L131.43 26.1293C129.633 27.2391 127.6 27.8911 125.509 28.0403L125.651 30.0352ZM132.481 27.8311C135.1 26.214 137.159 23.832 138.382 21.007L136.546 20.2129C135.486 22.6622 133.701 24.7273 131.43 26.1293L132.481 27.8311ZM138.382 21.007C139.604 18.182 139.929 15.0499 139.315 12.0339L137.355 12.4333C137.888 15.0482 137.606 17.7636 136.546 20.2129L138.382 21.007ZM139.315 12.0339C138.7 9.0178 137.175 6.26303 134.944 4.14162L133.566 5.59075C135.499 7.43 136.822 9.81836 137.355 12.4333L139.315 12.0339ZM134.944 4.14162C132.714 2.0202 129.886 0.634336 126.843 0.171198L126.542 2.14843C129.181 2.54997 131.632 3.7515 133.566 5.59075L134.944 4.14162ZM126.843 0.171198C123.8 -0.29194 120.689 0.18996 117.928 1.55181L118.813 3.34541C121.206 2.1647 123.904 1.74689 126.542 2.14843L126.843 0.171198ZM117.928 1.55181C115.168 2.91366 112.892 5.08986 111.408 7.78648L113.16 8.75082C114.447 6.41287 116.42 4.52612 118.813 3.34541L117.928 1.55181ZM111.408 7.78648C109.923 10.4831 109.303 13.5702 109.629 16.631L111.618 16.4189C111.335 13.7653 111.873 11.0888 113.16 8.75082L111.408 7.78648ZM110.729 17.5193L113.373 17.2374L113.161 15.2486L110.517 15.5306L110.729 17.5193ZM114.262 16.137C114.037 14.0246 114.465 11.894 115.489 10.0329L113.737 9.06859C112.515 11.2884 112.004 13.8296 112.273 16.349L114.262 16.137ZM115.489 10.0329C116.514 8.17184 118.084 6.66993 119.989 5.73004L119.105 3.93645C116.832 5.05747 114.959 6.84883 113.737 9.06859L115.489 10.0329ZM119.989 5.73004C121.895 4.79016 124.042 4.45757 126.142 4.77721L126.443 2.79998C123.938 2.41874 121.377 2.81542 119.105 3.93645L119.989 5.73004ZM126.142 4.77721C128.243 5.09685 130.194 6.05331 131.733 7.51741L133.112 6.06827C131.276 4.32201 128.948 3.18122 126.443 2.79998L126.142 4.77721ZM131.733 7.51741C133.272 8.98151 134.325 10.8827 134.75 12.9643L136.709 12.5649C136.203 10.0822 134.948 7.81454 133.112 6.06827L131.733 7.51741ZM134.75 12.9643C135.174 15.0458 134.949 17.2074 134.105 19.1571L135.941 19.9512C136.947 17.6258 137.215 15.0476 136.709 12.5649L134.75 12.9643ZM134.105 19.1571C133.262 21.1068 131.841 22.7507 130.033 23.8668L131.084 25.5685C133.24 24.2374 134.935 22.2767 135.941 19.9512L134.105 19.1571ZM130.033 23.8668C128.225 24.9828 126.119 25.5173 123.998 25.3979L123.886 27.3948C126.415 27.5371 128.928 26.8997 131.084 25.5685L130.033 23.8668ZM122.943 26.3401L122.941 26.374L124.938 26.4864L124.94 26.4526L122.943 26.3401ZM124.744 25.8353L124.704 25.7813L123.096 26.9712L123.136 27.0251L124.744 25.8353ZM123.11 25.7624L120.897 28.6083L122.476 29.8361L124.689 26.9901L123.11 25.7624ZM120.884 29.8187C122.985 32.6449 124.265 35.9137 124.625 39.3555L126.614 39.1477C126.216 35.3434 124.8 31.7353 122.489 28.6257L120.884 29.8187ZM124.625 39.3555C124.984 42.7979 124.414 46.3266 122.948 49.6496L124.778 50.4566C126.378 46.829 127.011 42.9515 126.614 39.1477L124.625 39.3555ZM122.948 49.6496C122.897 49.767 122.844 49.884 122.79 50.0006L124.606 50.8394C124.664 50.7122 124.722 50.5846 124.778 50.4566L122.948 49.6496ZM123.509 51.4021C124.495 51.5913 125.464 51.8271 126.413 52.1073L126.979 50.189C125.968 49.8906 124.936 49.6394 123.886 49.4379L123.509 51.4021Z" fill="black" mask="url(#path-9-outside-1_174_15)"/>
<path fill-rule="evenodd" clip-rule="evenodd" d="M3.894 93.2892L54.044 116.063C55.0667 116.457 55.932 116.575 56.64 116.417C57.4267 116.181 58.056 115.788 58.528 115.237C59 114.608 59.236 113.9 59.236 113.113C59.3147 112.327 59.1967 111.619 58.882 110.989C58.5673 110.281 57.8987 109.691 56.876 109.219L9.4046 87.9792L56.876 66.7392C57.8987 66.2672 58.5673 65.7166 58.882 65.0872C59.1967 64.3792 59.3147 63.6319 59.236 62.8452C59.236 62.0586 59 61.3899 58.528 60.8392C58.056 60.2099 57.4267 59.7772 56.64 59.5412C55.932 59.3052 55.0667 59.4232 54.044 59.8952L3.894 82.6692C2.63533 83.2199 1.652 83.9279 0.944 84.7932C0.314667 85.6586 0 86.7206 0 87.9792C0 90.4179 1.298 92.1879 3.894 93.2892ZM111.442 128.099C112.15 127.627 112.7 126.88 113.094 125.857L116.951 113.845H108.575L105.424 123.615C105.109 124.638 105.109 125.543 105.424 126.329C105.738 127.116 106.21 127.706 106.84 128.099C107.548 128.571 108.334 128.807 109.2 128.807C110.065 128.807 110.812 128.571 111.442 128.099ZM117.927 84.8452H126.264L141.06 38.7732C141.374 37.7506 141.374 36.8459 141.06 36.0592C140.824 35.2726 140.352 34.6826 139.644 34.2892C139.014 33.8172 138.267 33.5812 137.402 33.5812C136.615 33.5812 135.868 33.8172 135.16 34.2892C134.452 34.7612 133.901 35.5086 133.508 36.5312L117.927 84.8452ZM153.71 116.417C154.496 116.575 155.362 116.457 156.306 116.063L206.574 93.2892C207.832 92.7386 208.776 92.0306 209.406 91.1652C210.035 90.2212 210.35 89.1592 210.35 87.9792C210.35 85.5406 209.091 83.7706 206.574 82.6692L156.306 59.8952C155.362 59.4232 154.496 59.3052 153.71 59.5412C152.923 59.7772 152.294 60.2099 151.822 60.8392C151.428 61.3899 151.192 62.0586 151.114 62.8452C151.035 63.6319 151.192 64.3792 151.586 65.0872C151.979 65.7166 152.608 66.2672 153.474 66.7392L201.051 87.9792L153.474 109.219C152.608 109.691 151.979 110.281 151.586 110.989C151.192 111.619 151.035 112.327 151.114 113.113C151.192 113.9 151.428 114.608 151.822 115.237C152.294 115.788 152.923 116.181 153.71 116.417Z" fill="black"/>
<path d="M116.528 119.745C108.995 119.745 102.628 118.312 97.4279 115.445C92.2946 112.579 88.3946 108.445 85.7279 103.045C83.0613 97.6452 81.7279 91.1785 81.7279 83.6452C81.7279 78.0452 82.4613 73.0119 83.9279 68.5452C85.4613 64.0785 87.6613 60.3119 90.5279 57.2452C93.4613 54.1119 96.9946 51.7119 101.128 50.0452C105.328 48.3119 110.061 47.4452 115.328 47.4452C119.528 47.4452 123.595 48.0452 127.528 49.2452C131.461 50.3785 134.961 52.2119 138.028 54.7452C138.828 55.3452 139.328 56.0119 139.528 56.7452C139.728 57.4785 139.695 58.2119 139.428 58.9452C139.228 59.6785 138.861 60.3119 138.328 60.8452C137.861 61.3119 137.228 61.5785 136.428 61.6452C135.695 61.7119 134.928 61.4785 134.128 60.9452C131.395 58.8119 128.495 57.2785 125.428 56.3452C122.361 55.3452 118.961 54.8452 115.228 54.8452C109.895 54.8452 105.361 55.9785 101.628 58.2452C97.9613 60.5119 95.1613 63.7785 93.2279 68.0452C91.3613 72.3119 90.4279 77.5119 90.4279 83.6452C90.4279 92.9785 92.5946 100.112 96.9279 105.045C101.328 109.979 107.928 112.445 116.728 112.445C119.928 112.445 123.061 112.145 126.128 111.545C129.195 110.879 132.095 109.979 134.828 108.845L133.028 113.545V88.6452H118.728C117.528 88.6452 116.628 88.3452 116.028 87.7452C115.428 87.1452 115.128 86.3452 115.128 85.3452C115.128 84.2785 115.428 83.4785 116.028 82.9452C116.628 82.4119 117.528 82.1452 118.728 82.1452H136.628C137.761 82.1452 138.628 82.4452 139.228 83.0452C139.828 83.6452 140.128 84.5119 140.128 85.6452V111.745C140.128 112.745 139.961 113.579 139.628 114.245C139.295 114.912 138.728 115.412 137.928 115.745C135.128 116.879 131.761 117.845 127.828 118.645C123.961 119.379 120.195 119.745 116.528 119.745Z" fill="black"/>
</svg>
