<svg width="41" height="44" viewBox="0 0 61 64" fill="none" xmlns="http://www.w3.org/2000/svg">
<path fill-rule="evenodd" clip-rule="evenodd" d="M1.56264 62.2269C2.53184 62.4797 3.5221 62.6904 4.51237 62.7747C8.0099 63.0486 19.7456 63.3646 22.1054 63.2593C22.8217 63.2593 23.6224 63.1328 24.2755 62.8379C25.4344 62.3111 25.5186 60.9627 24.4441 60.2253C24.0648 59.9514 23.5592 59.7828 23.0746 59.6985C21.6629 59.4668 20.2513 59.2771 18.8396 59.1718C14.5836 58.8768 10.3065 58.6029 6.05044 58.4133C4.63879 58.3501 3.20606 58.4976 1.79441 58.6661C0.740931 58.7925 -0.0597093 59.6564 0.00349915 60.457C0.0877771 61.4051 0.698791 61.9951 1.56264 62.2269ZM28.7106 33.1861L28.7103 33.186L28.7103 33.186C28.0928 33.0437 27.5382 32.9158 26.9934 32.7294C18.9027 29.9904 11.697 25.5869 4.84939 20.5723C4.04875 19.9824 3.29025 19.2449 2.78458 18.4232C2.51068 17.9808 2.55282 17.0959 2.82672 16.5902C3.03741 16.2109 3.85912 15.937 4.32265 16.0213C5.20757 16.1688 6.11356 16.4848 6.9142 16.9273C12.2026 19.8349 17.47 22.7635 22.7163 25.7343C24.2497 26.6082 25.7701 27.5208 27.2878 28.4316L27.288 28.4318L27.289 28.4324C27.7103 28.6853 28.1314 28.938 28.5525 29.1897C29.2057 29.569 29.8378 29.9904 30.4277 30.4328C31.102 30.9174 31.5023 31.6549 31.0598 32.3923C31.0315 32.4388 31.0039 32.4858 30.9764 32.5326L30.9764 32.5326C30.7177 32.9733 30.4651 33.4036 29.6271 33.4036C29.3041 33.3229 29.0004 33.2529 28.7106 33.1861ZM60.839 4.63176L60.839 4.63187L60.839 4.63198C60.733 5.36459 60.6207 6.1407 60.4524 6.89812L60.4519 6.90031C59.4407 11.3874 58.4296 15.8744 57.3762 20.3405C57.1445 21.3096 56.7442 22.2578 56.2806 23.1216C55.6696 24.2804 54.8058 24.6808 53.8576 24.4911C52.9095 24.3015 52.3196 23.543 52.2985 22.2156C52.2774 21.3096 52.2985 20.3404 52.5092 19.4766C53.9419 13.8089 55.4168 8.14122 56.9127 2.4946C57.0813 1.86252 57.3762 1.20936 57.7976 0.724767C58.83 -0.497264 60.4524 -0.11801 60.8527 1.44113C60.9459 1.82734 60.955 2.24723 60.965 2.71143C60.9708 2.98162 60.9769 3.26682 61.0002 3.56914C60.9439 3.90714 60.8922 4.26397 60.839 4.63176Z" fill="white"/>
</svg>
